<svg width="48" height="48" viewBox="0 0 48 48" fill="none" xmlns="http://www.w3.org/2000/svg">
<path d="M3 18.2C3 12.8795 3 10.2193 4.03544 8.18709C4.94624 6.39955 6.39955 4.94624 8.18709 4.03544C10.2193 3 12.8795 3 18.2 3H29.8C35.1205 3 37.7807 3 39.8129 4.03544C41.6004 4.94624 43.0538 6.39955 43.9646 8.18709C45 10.2193 45 12.8795 45 18.2V29.8C45 35.1205 45 37.7807 43.9646 39.8129C43.0538 41.6004 41.6004 43.0538 39.8129 43.9646C37.7807 45 35.1205 45 29.8 45H18.2C12.8795 45 10.2193 45 8.18709 43.9646C6.39955 43.0538 4.94624 41.6004 4.03544 39.8129C3 37.7807 3 35.1205 3 29.8V18.2Z" fill="#E6001F"/>
<path d="M10.5 34.5C10.5 34.5 19.831 12.0059 19.8089 12C19.8089 12 19.8089 12 19.8089 12H19.8089H26.8952L37.5 34.5L29.4902 34.5C29.4961 34.5119 23.4844 20.6944 23.409 20.5555C23.3959 20.676 19.4226 29.9236 19.3746 29.935H23.6565C23.6371 29.9585 25.5183 34.4571 25.5183 34.5L10.5 34.5Z" fill="white"/>
</svg>
