<svg width="451" height="308" viewBox="0 0 451 308" fill="none" xmlns="http://www.w3.org/2000/svg">
<g clip-path="url(#clip0)">
<path d="M19.2746 98.2155C18.9741 98.2152 18.6763 98.1589 18.3964 98.0495C17.9438 97.8754 17.5548 97.5677 17.2811 97.1671C17.0074 96.7665 16.8619 96.292 16.8639 95.8067V70.669C16.863 69.8181 16.5249 69.0024 15.9238 68.4007C15.3227 67.799 14.5077 67.4606 13.6576 67.4596H8.51464C6.38976 67.4572 4.35259 66.6112 2.85007 65.1073C1.34754 63.6035 0.502381 61.5644 0.5 59.4376V8.89697C0.502383 6.77015 1.34754 4.73111 2.85007 3.22722C4.35259 1.72332 6.38976 0.877384 8.51464 0.875H189.921C192.046 0.877386 194.083 1.72332 195.585 3.22722C197.088 4.73111 197.933 6.77015 197.935 8.89697V59.4376C197.933 61.5644 197.088 63.6034 195.585 65.1073C194.083 66.6112 192.046 67.4572 189.921 67.4596H49.9011C49.4566 67.4601 49.0171 67.5528 48.6102 67.732C48.2034 67.9111 47.8381 68.1727 47.5374 68.5003L21.0404 97.4328C20.8166 97.679 20.544 97.8758 20.24 98.0106C19.9359 98.1454 19.6071 98.2151 19.2746 98.2155V98.2155ZM8.51464 1.94394C6.67291 1.94602 4.9072 2.67924 3.60489 3.98274C2.30259 5.28623 1.57004 7.05355 1.56796 8.89697V59.4376C1.57004 61.281 2.30259 63.0483 3.60489 64.3518C4.9072 65.6553 6.67291 66.3885 8.51464 66.3906H13.6576C14.7908 66.3919 15.8773 66.8431 16.6786 67.6451C17.4799 68.4472 17.9306 69.5347 17.9319 70.669V95.8067C17.9319 96.0762 18.0132 96.3394 18.1652 96.5618C18.3172 96.7842 18.5328 96.9555 18.7837 97.0531C19.0347 97.1508 19.3092 97.1704 19.5714 97.1092C19.8336 97.0481 20.0712 96.9091 20.2532 96.7104L46.7502 67.7779C47.151 67.3412 47.638 66.9925 48.1803 66.7537C48.7227 66.5149 49.3086 66.3913 49.9011 66.3906H189.921C191.763 66.3885 193.528 65.6553 194.831 64.3518C196.133 63.0483 196.865 61.281 196.867 59.4376V8.89697C196.865 7.05355 196.133 5.28623 194.831 3.98274C193.528 2.67924 191.763 1.94602 189.921 1.94394H8.51464Z" fill="#CCCCCC"/>
<path d="M20.159 23.638C24.0322 23.638 27.1721 20.4953 27.1721 16.6185C27.1721 12.7417 24.0322 9.59894 20.159 9.59894C16.2858 9.59894 13.1459 12.7417 13.1459 16.6185C13.1459 20.4953 16.2858 23.638 20.159 23.638Z" fill="#CCCCCC"/>
<path d="M181.739 55.4599H16.6966C16.2051 55.4605 15.7182 55.3641 15.2639 55.1763C14.8096 54.9884 14.3967 54.7127 14.0489 54.365C13.7012 54.0173 13.4252 53.6044 13.237 53.1499C13.0487 52.6954 12.9518 52.2082 12.9518 51.7162C12.9518 51.2242 13.0487 50.737 13.237 50.2825C13.4252 49.828 13.7012 49.4151 14.0489 49.0674C14.3967 48.7197 14.8096 48.444 15.2639 48.2561C15.7182 48.0682 16.2051 47.9718 16.6966 47.9724H181.739C182.23 47.9718 182.717 48.0682 183.172 48.2561C183.626 48.444 184.039 48.7197 184.386 49.0674C184.734 49.4151 185.01 49.828 185.198 50.2825C185.387 50.737 185.484 51.2242 185.484 51.7162C185.484 52.2082 185.387 52.6954 185.198 53.1499C185.01 53.6044 184.734 54.0173 184.386 54.365C184.039 54.7127 183.626 54.9884 183.172 55.1763C182.717 55.3641 182.23 55.4605 181.739 55.4599V55.4599Z" fill="#CCCCCC"/>
<path d="M127.972 39.549H16.6966C16.2051 39.5496 15.7182 39.4532 15.2639 39.2653C14.8096 39.0774 14.3967 38.8017 14.0489 38.4541C13.7012 38.1064 13.4252 37.6934 13.237 37.2389C13.0487 36.7844 12.9518 36.2972 12.9518 35.8052C12.9518 35.3132 13.0487 34.826 13.237 34.3715C13.4252 33.917 13.7012 33.5041 14.0489 33.1564C14.3967 32.8087 14.8096 32.533 15.2639 32.3452C15.7182 32.1573 16.2051 32.0609 16.6966 32.0615H127.972C128.463 32.0609 128.95 32.1573 129.404 32.3452C129.859 32.533 130.271 32.8087 130.619 33.1564C130.967 33.5041 131.243 33.917 131.431 34.3715C131.619 34.826 131.716 35.3132 131.716 35.8052C131.716 36.2972 131.619 36.7844 131.431 37.2389C131.243 37.6934 130.967 38.1064 130.619 38.4541C130.271 38.8017 129.859 39.0774 129.404 39.2653C128.95 39.4532 128.463 39.5496 127.972 39.549V39.549Z" fill="#CCCCCC"/>
<path d="M19.2746 276.512C18.9741 276.512 18.6763 276.455 18.3964 276.346C17.9438 276.172 17.5548 275.864 17.2811 275.463C17.0074 275.063 16.8619 274.588 16.8639 274.103V248.965C16.863 248.114 16.5249 247.299 15.9238 246.697C15.3227 246.095 14.5077 245.757 13.6576 245.756H8.51464C6.38976 245.754 4.35259 244.908 2.85007 243.404C1.34755 241.9 0.502387 239.861 0.5 237.734V187.193C0.502383 185.067 1.34755 183.028 2.85007 181.524C4.35259 180.02 6.38976 179.174 8.51464 179.171H189.921C192.046 179.174 194.083 180.02 195.585 181.524C197.088 183.028 197.933 185.067 197.935 187.193V237.734C197.933 239.861 197.088 241.9 195.585 243.404C194.083 244.908 192.046 245.754 189.921 245.756H49.9011C49.4566 245.756 49.0171 245.849 48.6102 246.028C48.2034 246.207 47.8381 246.469 47.5374 246.797L21.0404 275.729C20.8166 275.975 20.544 276.172 20.24 276.307C19.9359 276.442 19.6071 276.512 19.2746 276.512V276.512ZM8.51464 180.24C6.67291 180.242 4.9072 180.976 3.60489 182.279C2.30259 183.583 1.57004 185.35 1.56796 187.193V237.734C1.57004 239.577 2.30259 241.345 3.60489 242.648C4.9072 243.952 6.67291 244.685 8.51464 244.687H13.6576C14.7908 244.688 15.8773 245.139 16.6786 245.942C17.4799 246.744 17.9306 247.831 17.9319 248.965V274.103C17.9319 274.373 18.0132 274.636 18.1652 274.858C18.3172 275.081 18.5328 275.252 18.7837 275.35C19.0347 275.447 19.3092 275.467 19.5714 275.406C19.8336 275.344 20.0712 275.205 20.2532 275.007L46.7502 246.074C47.151 245.638 47.638 245.289 48.1803 245.05C48.7227 244.811 49.3086 244.688 49.9011 244.687H189.921C191.763 244.685 193.528 243.952 194.831 242.648C196.133 241.345 196.865 239.577 196.867 237.734V187.193C196.865 185.35 196.133 183.583 194.831 182.279C193.528 180.976 191.763 180.242 189.921 180.24L8.51464 180.24Z" fill="#CCCCCC"/>
<path d="M287.163 183.854C286.83 183.854 286.502 183.784 286.197 183.649C285.893 183.514 285.621 183.318 285.397 183.071L258.9 154.139C258.599 153.811 258.234 153.55 257.827 153.371C257.42 153.191 256.981 153.099 256.536 153.098H116.517C114.392 153.096 112.355 152.25 110.852 150.746C109.35 149.242 108.505 147.203 108.502 145.076V94.5355C108.505 92.4087 109.35 90.3697 110.852 88.8658C112.355 87.3619 114.392 86.5159 116.517 86.5135H297.923C300.048 86.5159 302.085 87.3618 303.587 88.8657C305.09 90.3696 305.935 92.4087 305.937 94.5355V145.076C305.935 147.203 305.09 149.242 303.587 150.746C302.085 152.25 300.048 153.096 297.923 153.098H292.78C291.93 153.099 291.115 153.438 290.514 154.039C289.913 154.641 289.575 155.457 289.574 156.308V181.445C289.576 181.931 289.43 182.405 289.156 182.806C288.883 183.206 288.494 183.514 288.041 183.688C287.761 183.797 287.463 183.854 287.163 183.854V183.854ZM116.517 87.5825C114.675 87.5845 112.909 88.3178 111.607 89.6213C110.305 90.9248 109.572 92.6921 109.57 94.5355V145.076C109.572 146.92 110.305 148.687 111.607 149.99C112.909 151.294 114.675 152.027 116.517 152.029H256.536C257.129 152.03 257.715 152.153 258.257 152.392C258.799 152.631 259.286 152.98 259.687 153.416L286.184 182.349C286.366 182.548 286.604 182.687 286.866 182.748C287.128 182.809 287.403 182.789 287.654 182.692C287.905 182.594 288.12 182.423 288.272 182.2C288.424 181.978 288.506 181.715 288.506 181.445V156.308C288.507 155.173 288.958 154.086 289.759 153.284C290.56 152.482 291.647 152.03 292.78 152.029H297.923C299.765 152.027 301.53 151.294 302.833 149.99C304.135 148.687 304.867 146.92 304.87 145.076V94.5355C304.867 92.6921 304.135 90.9248 302.833 89.6213C301.53 88.3178 299.765 87.5846 297.923 87.5825L116.517 87.5825Z" fill="#3F3D56"/>
<path d="M20.159 201.934C24.0322 201.934 27.1721 198.792 27.1721 194.915C27.1721 191.038 24.0322 187.895 20.159 187.895C16.2858 187.895 13.1459 191.038 13.1459 194.915C13.1459 198.792 16.2858 201.934 20.159 201.934Z" fill="#CCCCCC"/>
<path d="M181.739 233.756H16.6966C16.2051 233.757 15.7182 233.661 15.2639 233.473C14.8096 233.285 14.3967 233.009 14.0489 232.661C13.7012 232.314 13.4252 231.901 13.237 231.446C13.0487 230.992 12.9518 230.505 12.9518 230.013C12.9518 229.521 13.0487 229.033 13.237 228.579C13.4252 228.124 13.7012 227.711 14.0489 227.364C14.3967 227.016 14.8096 226.74 15.2639 226.553C15.7182 226.365 16.2051 226.268 16.6966 226.269H181.739C182.731 226.269 183.682 226.663 184.384 227.365C185.085 228.067 185.479 229.02 185.479 230.013C185.479 231.005 185.085 231.958 184.384 232.66C183.682 233.362 182.731 233.756 181.739 233.756Z" fill="#CCCCCC"/>
<path d="M127.972 217.845H16.6966C16.2051 217.846 15.7182 217.75 15.2639 217.562C14.8096 217.374 14.3967 217.098 14.0489 216.75C13.7012 216.403 13.4252 215.99 13.237 215.535C13.0487 215.081 12.9518 214.594 12.9518 214.102C12.9518 213.61 13.0487 213.122 13.237 212.668C13.4252 212.213 13.7012 211.801 14.0489 211.453C14.3967 211.105 14.8096 210.829 15.2639 210.642C15.7182 210.454 16.2051 210.357 16.6966 210.358H127.972C128.463 210.357 128.95 210.454 129.404 210.642C129.859 210.829 130.271 211.105 130.619 211.453C130.967 211.801 131.243 212.213 131.431 212.668C131.619 213.122 131.716 213.61 131.716 214.102C131.716 214.594 131.619 215.081 131.431 215.535C131.243 215.99 130.967 216.403 130.619 216.75C130.271 217.098 129.859 217.374 129.404 217.562C128.95 217.75 128.463 217.846 127.972 217.845Z" fill="#CCCCCC"/>
<path d="M128.161 108.808C132.034 108.808 135.174 105.666 135.174 101.789C135.174 97.9121 132.034 94.7694 128.161 94.7694C124.288 94.7694 121.148 97.9121 121.148 101.789C121.148 105.666 124.288 108.808 128.161 108.808Z" fill="#3F3D56"/>
<path d="M289.741 140.63H124.699C123.707 140.63 122.755 140.236 122.054 139.534C121.352 138.832 120.958 137.88 120.958 136.887C120.958 135.894 121.352 134.941 122.054 134.239C122.755 133.537 123.707 133.143 124.699 133.143H289.741C290.733 133.143 291.684 133.537 292.386 134.239C293.087 134.941 293.481 135.894 293.481 136.887C293.481 137.88 293.087 138.832 292.386 139.534C291.684 140.236 290.733 140.63 289.741 140.63V140.63Z" fill="#F1515E"/>
<path d="M235.974 124.719H124.699C124.207 124.72 123.72 124.624 123.266 124.436C122.812 124.248 122.399 123.972 122.051 123.625C121.703 123.277 121.427 122.864 121.239 122.409C121.051 121.955 120.954 121.468 120.954 120.976C120.954 120.484 121.051 119.996 121.239 119.542C121.427 119.087 121.703 118.675 122.051 118.327C122.399 117.979 122.812 117.703 123.266 117.516C123.72 117.328 124.207 117.231 124.699 117.232H235.974C236.465 117.231 236.952 117.328 237.406 117.516C237.861 117.703 238.274 117.979 238.621 118.327C238.969 118.675 239.245 119.087 239.433 119.542C239.622 119.996 239.718 120.484 239.718 120.976C239.718 121.468 239.622 121.955 239.433 122.409C239.245 122.864 238.969 123.277 238.621 123.625C238.274 123.972 237.861 124.248 237.406 124.436C236.952 124.624 236.465 124.72 235.974 124.719Z" fill="#F1515E"/>
<path d="M289.669 193.475C289.829 192.706 290.156 191.981 290.626 191.352C291.097 190.723 291.699 190.205 292.391 189.834C293.083 189.463 293.848 189.249 294.632 189.206C295.416 189.163 296.2 189.293 296.928 189.586L309.455 175.178L312.115 184.739L299.812 196.955C299.239 198.147 298.249 199.087 297.03 199.598C295.81 200.108 294.446 200.153 293.196 199.724C291.946 199.295 290.896 198.422 290.246 197.27C289.596 196.119 289.391 194.768 289.669 193.475V193.475Z" fill="#FFB8B8"/>
<path d="M358.421 125.867C365.664 125.867 371.536 119.989 371.536 112.739C371.536 105.49 365.664 99.6124 358.421 99.6124C351.178 99.6124 345.306 105.49 345.306 112.739C345.306 119.989 351.178 125.867 358.421 125.867Z" fill="#FFB8B8"/>
<path d="M343.013 293.428L336.467 293.428L333.353 268.154L343.015 268.154L343.013 293.428Z" fill="#FFB8B8"/>
<path d="M344.683 299.78L323.575 299.779V299.512C323.575 298.432 323.787 297.363 324.2 296.365C324.613 295.367 325.218 294.46 325.981 293.697C326.744 292.933 327.65 292.328 328.646 291.914C329.643 291.501 330.712 291.288 331.791 291.288H331.791L344.683 291.289L344.683 299.78Z" fill="#2F2E41"/>
<path d="M362.77 300.376L356.224 300.376L355.318 275.706L362.772 275.102L362.77 300.376Z" fill="#FFB8B8"/>
<path d="M364.44 306.728L343.332 306.727V306.46C343.332 305.38 343.544 304.311 343.957 303.313C344.37 302.315 344.975 301.409 345.738 300.645C346.501 299.881 347.407 299.276 348.404 298.862C349.4 298.449 350.469 298.236 351.548 298.236H351.548L364.441 298.237L364.44 306.728Z" fill="#2F2E41"/>
<path d="M360.909 295.764L355.811 295.163C355.233 295.094 354.699 294.817 354.309 294.384C353.919 293.952 353.699 293.392 353.689 292.809L352.734 226.354C352.731 226.166 352.662 225.985 352.539 225.843C352.417 225.7 352.248 225.605 352.063 225.575C351.877 225.544 351.687 225.58 351.525 225.676C351.363 225.772 351.24 225.921 351.178 226.098L344.105 246.087L344.611 283.554C344.619 284.173 344.389 284.771 343.969 285.224C343.548 285.677 342.97 285.951 342.353 285.988L335.697 286.27C335.088 286.305 334.489 286.108 334.019 285.719C333.55 285.33 333.244 284.778 333.164 284.173L329.688 241.789L329.686 241.762L334.96 197.498L374.572 200.367L363.576 293.657C363.506 294.242 363.225 294.781 362.786 295.172C362.346 295.563 361.779 295.78 361.191 295.781C361.097 295.781 361.002 295.775 360.909 295.764Z" fill="#2F2E41"/>
<path d="M335.129 201.422C334.773 201.232 334.471 200.955 334.252 200.617C334.032 200.279 333.901 199.891 333.871 199.488C333.871 199.488 337.434 177.316 338.739 176.9L335.883 153.19C335.541 150.298 335.779 147.366 336.584 144.568C337.39 141.77 338.745 139.16 340.571 136.893C342.33 134.694 344.516 132.875 346.997 131.544C349.478 130.214 352.202 129.4 355.006 129.153C355.405 129.117 355.802 129.09 356.197 129.071C359.576 128.889 362.95 129.528 366.03 130.931C369.11 132.335 371.807 134.462 373.89 137.131C376.05 139.824 377.529 143 378.2 146.387C378.872 149.775 378.715 153.275 377.745 156.589L376.143 162.169V201.162C376.141 201.542 376.05 201.917 375.878 202.256C375.705 202.595 375.455 202.889 375.149 203.114C370.161 206.778 364.524 208.074 359.046 208.074C348.681 208.074 338.885 203.435 335.129 201.422Z" fill="#F1515E"/>
<path d="M304.377 194.287L297.488 189.13C297.217 188.928 296.993 188.671 296.828 188.376C296.664 188.081 296.563 187.755 296.533 187.418C296.503 187.082 296.544 186.743 296.654 186.423C296.763 186.104 296.939 185.811 297.169 185.564L338.212 141.484C339.53 140.081 341.306 139.198 343.219 138.995C345.131 138.791 347.054 139.281 348.636 140.375L348.636 140.375C349.601 141.048 350.405 141.925 350.992 142.945C351.579 143.964 351.934 145.101 352.032 146.273C352.13 147.446 351.969 148.626 351.56 149.729C351.151 150.832 350.503 151.831 349.664 152.655L307.499 194.077C307.129 194.445 306.648 194.681 306.131 194.749C305.614 194.817 305.089 194.714 304.636 194.456C304.546 194.405 304.46 194.348 304.377 194.287V194.287Z" fill="#F1515E"/>
<path d="M357.107 188.45C357.408 187.725 357.865 187.074 358.444 186.544C359.024 186.014 359.712 185.618 360.462 185.383C361.211 185.148 362.002 185.081 362.78 185.185C363.558 185.29 364.304 185.564 364.965 185.988L379.962 174.18L380.79 184.07L366.421 193.767C365.635 194.831 364.487 195.569 363.194 195.843C361.901 196.116 360.553 195.905 359.405 195.249C358.256 194.594 357.388 193.54 356.965 192.287C356.542 191.034 356.592 189.669 357.107 188.45V188.45Z" fill="#FFB8B8"/>
<path d="M370.531 193.06C370.134 192.937 369.776 192.711 369.493 192.407C369.21 192.102 369.011 191.729 368.917 191.324L367.402 184.955C367.29 184.503 367.315 184.028 367.472 183.59C367.628 183.151 367.91 182.769 368.283 182.49L378.476 171.456L363.483 148.316C362.348 146.917 361.708 145.181 361.663 143.38C361.619 141.579 362.172 139.814 363.236 138.361C364.084 137.203 365.223 136.29 366.537 135.714C367.852 135.139 369.295 134.921 370.72 135.084C372.145 135.246 373.503 135.783 374.654 136.639C375.805 137.496 376.71 138.642 377.277 139.961L391.216 167.118C392.601 169.816 392.947 172.93 392.187 175.866C391.426 178.803 389.613 181.357 387.093 183.042L372.848 192.566C372.412 192.957 371.847 193.173 371.262 193.174C371.014 193.174 370.767 193.135 370.531 193.06V193.06Z" fill="#F1515E"/>
<path d="M368.139 124.475C367.83 124.66 367.482 124.772 367.123 124.802C366.764 124.832 366.403 124.778 366.067 124.646C365.732 124.513 365.432 124.305 365.19 124.038C364.948 123.77 364.77 123.451 364.672 123.104L364.663 123.071C364.396 121.979 364.607 120.836 364.676 119.713C364.745 118.591 364.629 117.359 363.861 116.538C362.43 115.008 359.902 115.837 357.842 115.459C356.635 115.196 355.566 114.502 354.833 113.507C354.101 112.512 353.756 111.284 353.863 110.052C353.891 109.819 353.935 109.585 353.986 109.351C354.111 108.76 354.098 108.147 353.947 107.561C353.796 106.975 353.512 106.432 353.116 105.975C352.72 105.517 352.224 105.158 351.666 104.925C351.108 104.692 350.504 104.592 349.9 104.632C347.821 104.762 345.58 105.405 343.851 103.872C343.217 103.268 342.775 102.489 342.58 101.635C342.385 100.78 342.446 99.8869 342.755 99.0667C343.722 96.2229 346.491 94.7221 349.234 93.8905C352.628 92.8894 356.201 92.6578 359.695 93.2124C363.189 93.767 366.516 95.094 369.433 97.0968C371.175 98.312 372.804 99.8419 373.555 101.83C374.305 103.819 373.961 106.334 372.3 107.658C373.601 109.021 374.52 110.703 374.967 112.534C375.413 114.365 375.371 116.281 374.845 118.091C374.035 120.753 370.117 123.322 368.139 124.475Z" fill="#2F2E41"/>
<path d="M450.5 306.591C450.5 306.732 450.443 306.868 450.343 306.968C450.243 307.068 450.108 307.125 449.966 307.125H246.52C246.378 307.125 246.243 307.069 246.142 306.968C246.042 306.868 245.986 306.732 245.986 306.591C245.986 306.449 246.042 306.313 246.142 306.213C246.243 306.112 246.378 306.056 246.52 306.056H449.966C450.108 306.056 450.243 306.113 450.343 306.213C450.443 306.313 450.5 306.449 450.5 306.591V306.591Z" fill="#3F3D56"/>
</g>
<defs>
<clipPath id="clip0">
<rect width="450" height="306.25" fill="white" transform="translate(0.5 0.875)"/>
</clipPath>
</defs>
</svg>
