<svg width="467" height="308" viewBox="0 0 467 308" fill="none" xmlns="http://www.w3.org/2000/svg">
<g clip-path="url(#clip0)">
<path d="M336.303 290.02H52.794V291.088H336.303V290.02Z" fill="#3F3D56"/>
<path d="M203.144 143.083C203.144 143.083 197.127 167.102 209.161 162.832C221.194 158.562 213.974 142.016 213.974 142.016L203.144 143.083Z" fill="#FFB9B9"/>
<path d="M315.658 151.09C315.658 151.09 330.098 166.569 321.073 169.771C312.048 172.974 307.234 155.36 308.438 153.759C309.641 152.157 315.658 151.09 315.658 151.09Z" fill="#FFB9B9"/>
<path d="M281.362 41.6699C291.331 41.6699 299.413 34.5008 299.413 25.6572C299.413 16.8137 291.331 9.64453 281.362 9.64453C271.393 9.64453 263.312 16.8137 263.312 25.6572C263.312 34.5008 271.393 41.6699 281.362 41.6699Z" fill="#FFB9B9"/>
<path d="M267.825 34.7956L265.418 51.3419L285.273 57.7468L289.485 39.0654L267.825 34.7956Z" fill="#FFB9B9"/>
<path d="M278.956 48.0749C278.956 48.0749 268.756 43.6079 266.636 39.9701L262.109 43.8049C262.109 43.8049 229.618 41.1361 224.805 55.5475C219.991 69.9589 224.203 122.267 224.203 122.267C224.203 122.267 217.585 145.752 219.39 146.286C221.195 146.82 243.457 156.427 274.744 151.09C274.744 151.09 288.582 148.955 290.989 150.556C293.396 152.157 289.786 124.936 289.786 124.936C289.786 124.936 313.853 76.8977 309.641 71.0264C305.429 65.1551 286.777 52.8787 286.777 52.8787L287.981 47.0074C287.981 47.0074 279.557 50.21 278.956 48.0749Z" fill="#1DBDE6"/>
<path d="M229.618 51.8112C229.618 51.8112 218.788 56.615 216.983 64.0876C215.178 71.5602 198.331 133.476 200.136 137.212C201.941 140.948 201.339 145.752 201.339 145.752L216.983 144.151C216.983 144.151 213.974 140.415 215.779 138.813C217.584 137.212 219.39 131.875 218.186 129.74C216.983 127.605 215.779 131.341 222.398 124.402C229.016 117.463 244.058 53.9463 229.618 51.8112Z" fill="#1DBDE6"/>
<path d="M306.031 69.959C306.031 69.959 311.145 70.2258 312.349 77.6984C313.552 85.171 315.658 131.341 315.658 131.341C315.658 131.341 323.48 146.286 320.471 148.421C317.463 150.556 319.268 153.759 319.268 153.759L308.438 156.427L284.972 123.868L306.031 69.959Z" fill="#1DBDE6"/>
<path d="M221.194 144.151C221.194 144.151 217.584 144.685 217.584 156.427C217.584 168.17 210.966 204.465 215.178 210.337C219.389 216.208 219.991 269.05 219.991 269.05C219.991 269.05 231.423 273.32 241.05 259.442L242.253 251.97L244.66 215.674L254.287 170.305L267.523 220.478C267.523 220.478 265.718 280.792 272.337 280.792C278.955 280.792 291.591 275.989 291.591 275.989C291.591 275.989 294.599 270.651 293.396 267.982C292.192 265.314 290.989 265.847 292.192 263.712C293.396 261.577 295.201 206.067 295.201 206.067C295.201 206.067 292.794 148.955 289.786 147.354C286.777 145.752 221.194 144.151 221.194 144.151Z" fill="#2F2E41"/>
<path d="M221.195 266.915L211.568 275.989C211.568 275.989 194.119 290.4 209.161 290.934C224.203 291.468 232.626 282.394 232.626 281.326C232.626 280.259 233.228 276.522 237.44 276.522C241.652 276.522 251.88 267.449 249.473 263.712C247.067 259.976 239.847 258.375 239.847 258.375L221.195 266.915Z" fill="#2F2E41"/>
<path d="M272.939 278.657C272.939 278.657 265.719 291.468 269.93 294.136C274.142 296.805 275.345 297.873 275.345 297.873C275.345 297.873 278.956 297.339 278.354 302.143C277.752 306.946 300.014 309.615 301.218 305.879C302.421 302.143 301.819 294.67 299.413 292.535C297.006 290.4 289.786 275.455 289.786 275.455C289.786 275.455 281.964 267.449 272.939 278.657Z" fill="#2F2E41"/>
<path d="M299.579 12.7995L302.98 12.371C302.98 12.371 298.246 4.642 289.084 3.23856L292.3 1.31297C292.3 1.31297 286.712 -2.22998 279.489 2.32404C275.693 4.71798 271.285 7.54379 268.042 11.1006L264.725 10.3814L265.364 13.3857L259.774 15.0394L264.881 15.6319C264.177 17.0484 263.715 18.5504 263.511 20.0879C263.313 21.6274 263.796 23.1748 264.86 24.4038C264.86 24.4038 270.644 18.1832 270.948 17.0832L270.19 19.8332C270.19 19.8332 273.969 18.0297 274.424 16.3798L275.583 18.671L277.261 15.8292L286.845 21.1128L285.838 18.2716L292.087 20.5006L290.386 16.9262C290.386 16.9262 296.722 22.0883 296.17 25.1744C295.618 28.2604 296.971 31.5913 296.971 31.5913C296.971 31.5913 306.608 18.6947 299.579 12.7995Z" fill="#2F2E41"/>
<path d="M466.208 194.223H369.854V195.246H466.208V194.223Z" fill="#3F3D56"/>
<path d="M106.045 273.032H82.8188V293.636H106.045V273.032Z" fill="#CFCCE0"/>
<path d="M102.989 290.925H78.5403V269.237H102.989V290.925ZM79.7628 289.841H101.766V270.321H79.7627L79.7628 289.841Z" fill="#3F3D56"/>
<path d="M131.456 93.0002L116.757 98.0432L122.245 110.631L136.943 105.588L131.456 93.0002Z" fill="#F2F2F2"/>
<path d="M134.287 104.595L118.815 109.904L113.038 96.6533L128.511 91.3449L134.287 104.595ZM119.3 108.976L133.225 104.198L128.026 92.2728L114.101 97.0504L119.3 108.976Z" fill="#3F3D56"/>
<path d="M401.543 246.455L396.419 233.234L382.032 237.622L387.156 250.843L401.543 246.455Z" fill="#F2F2F2"/>
<path d="M388.375 248.526L382.981 234.609L398.126 229.99L403.519 243.907L388.375 248.526ZM384.008 235.074L388.862 247.599L402.492 243.442L397.638 230.917L384.008 235.074Z" fill="#3F3D56"/>
<path d="M73.8686 180.732C82.4863 180.896 89.3415 186.436 89.3415 186.436C89.3415 186.436 82.2248 191.711 73.6071 191.547C64.9895 191.383 58.1343 185.843 58.1343 185.843C58.1343 185.843 65.251 180.568 73.8686 180.732Z" fill="#F1515E"/>
<path d="M30.5437 154.637C38.3293 157.918 47.257 155.693 47.257 155.693C47.257 155.693 43.5616 148.148 35.7759 144.867C27.9903 141.585 19.0626 143.81 19.0626 143.81C19.0626 143.81 22.758 151.355 30.5437 154.637Z" fill="#F1515E"/>
<path d="M31.3351 151.376C39.9189 150.68 47.4323 155.502 47.4323 155.502C47.4323 155.502 41.0286 161.452 32.4448 162.148C23.8609 162.844 16.3476 158.022 16.3476 158.022C16.3476 158.022 22.7513 152.072 31.3351 151.376Z" fill="#3F3D56"/>
<path d="M62.8007 152.694C61.978 160.306 67.3797 166.993 67.3797 166.993C67.3797 166.993 74.1154 161.338 74.9382 153.727C75.7609 146.115 70.3592 139.428 70.3592 139.428C70.3592 139.428 63.6235 145.083 62.8007 152.694Z" fill="#3F3D56"/>
<path d="M103.226 199.376C98.7241 205.897 100.273 214.008 100.273 214.008C100.273 214.008 109.122 211.547 113.624 205.026C118.126 198.506 116.577 190.395 116.577 190.395C116.577 190.395 107.729 192.856 103.226 199.376Z" fill="#3F3D56"/>
<path d="M90.1646 270.272L90.8208 269.878C88.508 266.901 87.2452 263.381 87.1929 259.765C87.2112 254.477 90.1395 249.585 92.9715 244.854C93.4971 243.976 94.021 243.101 94.525 242.226C96.6405 238.66 98.3265 234.905 99.5549 231.025C103.948 216.544 99.6227 199.458 87.9862 185.322C78.7551 174.108 64.9942 164.301 45.9177 155.343L45.5473 155.963C64.5152 164.871 78.1879 174.61 87.3467 185.736C98.8432 199.703 103.121 216.565 98.7901 230.842C97.576 234.675 95.9102 238.384 93.8202 241.907C93.3177 242.778 92.7957 243.65 92.272 244.525C89.395 249.331 86.42 254.301 86.401 259.763C86.4533 263.52 87.7634 267.177 90.1646 270.272V270.272Z" fill="#3F3D56"/>
<path d="M8.31499 156.266C12.4696 156.266 15.8376 153.278 15.8376 149.592C15.8376 145.907 12.4696 142.919 8.31499 142.919C4.16039 142.919 0.792427 145.907 0.792427 149.592C0.792427 153.278 4.16039 156.266 8.31499 156.266Z" fill="#3F3D56"/>
<path d="M417.839 189.011L321.008 158.159L338.295 115.46L398.587 102.343L435.126 146.312L417.839 189.011Z" fill="#2F2E41"/>
<path d="M406.108 180.544L333.747 156.074C352.532 133.752 360.932 118.006 360.939 93.2281L433.3 117.698C416.489 138.882 409.459 154.808 406.108 180.544Z" fill="#F2F2F2"/>
<path d="M411.804 121.047L374.315 108.369L373.651 109.916L411.139 122.594L411.804 121.047Z" fill="#3F3D56"/>
<path d="M409.145 127.234L371.657 114.557L370.992 116.104L408.481 128.781L409.145 127.234Z" fill="#3F3D56"/>
<path d="M406.487 133.421L368.998 120.744L368.333 122.291L405.822 134.968L406.487 133.421Z" fill="#3F3D56"/>
<path d="M403.828 139.609L366.339 126.931L365.674 128.478L403.163 141.155L403.828 139.609Z" fill="#3F3D56"/>
<path d="M401.169 145.796L363.68 133.119L363.016 134.665L400.504 147.343L401.169 145.796Z" fill="#3F3D56"/>
<path d="M398.51 151.983L361.022 139.306L360.357 140.853L397.846 153.53L398.51 151.983Z" fill="#3F3D56"/>
<path d="M395.852 158.17L358.363 145.493L357.698 147.04L395.187 159.717L395.852 158.17Z" fill="#3F3D56"/>
<path d="M393.193 164.358L355.704 151.68L355.04 153.227L392.528 165.905L393.193 164.358Z" fill="#3F3D56"/>
<path d="M415.602 194.536L318.771 163.685L338.295 115.46L379.186 149.472L435.126 146.312L415.602 194.536Z" fill="#3F3D56"/>
<path d="M366.401 179.341L318.119 163.957L329.883 134.898L330.843 135.204L319.424 163.411L366.746 178.489L366.401 179.341Z" fill="#F1515E"/>
<path d="M349.238 148.437L335.082 143.927L333.048 148.95L347.205 153.461L349.238 148.437Z" fill="#F1515E"/>
<path d="M189.178 290.4L113.391 290.364L113.986 252.621L151.65 267.638L189.772 253.561L189.178 290.4Z" fill="#3F3D56"/>
<path d="M130.505 273.274L119.426 273.137L119.364 277.069L130.443 277.206L130.505 273.274Z" fill="#F1515E"/>
<path d="M190.026 253.509L151.719 270.834L113.787 253.509V252.51H190.026V253.509Z" fill="#F1515E"/>
<path d="M410.245 110.651C411.15 108.544 406.552 105.032 399.975 102.808C393.398 100.584 387.332 100.489 386.426 102.597C385.52 104.704 390.118 108.216 396.696 110.44C403.273 112.664 409.339 112.759 410.245 110.651Z" fill="#F1515E"/>
<path d="M420.653 46.3804C418.224 45.7103 415.67 45.4712 413.136 45.6768C410.603 45.8825 408.14 46.5287 405.888 47.5788C403.636 48.6288 401.639 50.0621 400.011 51.7967C398.384 53.5313 397.157 55.5333 396.402 57.6884C393.225 66.7518 401.883 99.9314 401.883 99.9314C401.883 99.9314 430.223 76.9574 433.4 67.894C434.926 63.5416 434.44 58.8299 432.049 54.7953C429.659 50.7607 425.56 47.7338 420.653 46.3804V46.3804ZM412.176 70.5647C410.443 70.0867 408.909 69.1634 407.767 67.9118C406.626 66.6601 405.928 65.1362 405.763 63.5329C405.597 61.9295 405.972 60.3186 406.838 58.904C407.705 57.4893 409.025 56.3344 410.632 55.5853C412.238 54.8362 414.059 54.5265 415.864 54.6955C417.669 54.8644 419.377 55.5044 420.772 56.5344C422.167 57.5644 423.186 58.9383 423.701 60.4822C424.216 62.0262 424.203 63.6709 423.664 65.2083C423.306 66.2292 422.725 67.1775 421.954 67.9991C421.183 68.8208 420.237 69.4997 419.171 69.9971C418.104 70.4945 416.937 70.8006 415.737 70.898C414.537 70.9954 413.327 70.8821 412.176 70.5647V70.5647Z" fill="#F1515E"/>
</g>
<defs>
<clipPath id="clip0">
<rect width="465.415" height="307.639" fill="white" transform="translate(0.792297)"/>
</clipPath>
</defs>
</svg>
